<?xml version="1.0" encoding="UTF-8"?>
<svg xmlns="http://www.w3.org/2000/svg" xmlns:xlink="http://www.w3.org/1999/xlink" width="111px" height="24px" viewBox="0 0 110 24" version="1.1">
<g id="surface1">
<path style=" stroke:none;fill-rule:nonzero;fill:rgb(0%,0%,0%);fill-opacity:1;" d="M 0.851562 23.851562 L 0 23.851562 L 0 15.3125 L 2.449219 15.3125 C 3.390625 15.3125 4.074219 15.554688 4.5 16.035156 C 4.925781 16.519531 5.136719 17.113281 5.136719 17.824219 C 5.136719 18.484375 4.914062 19.066406 4.46875 19.566406 C 4.019531 20.070312 3.347656 20.324219 2.449219 20.324219 L 0.851562 20.324219 Z M 0.851562 16.082031 L 0.851562 19.558594 L 2.519531 19.558594 C 3.140625 19.558594 3.59375 19.386719 3.886719 19.042969 C 4.175781 18.699219 4.320312 18.292969 4.320312 17.824219 C 4.320312 17.359375 4.179688 16.953125 3.902344 16.601562 C 3.625 16.253906 3.164062 16.082031 2.519531 16.082031 Z M 12.574219 17.65625 C 12.574219 18.007812 12.519531 18.332031 12.410156 18.632812 C 12.300781 18.929688 12.089844 19.207031 11.785156 19.460938 C 11.484375 19.722656 11.097656 19.894531 10.628906 19.976562 L 12.523438 23.851562 L 11.585938 23.851562 L 9.757812 20.035156 L 8.351562 20.035156 L 8.351562 23.851562 L 7.5 23.851562 L 7.5 15.3125 L 9.941406 15.3125 C 10.875 15.3125 11.546875 15.539062 11.957031 15.984375 C 12.371094 16.433594 12.574219 16.988281 12.574219 17.65625 Z M 9.96875 16.082031 L 8.351562 16.082031 L 8.351562 19.261719 L 9.96875 19.261719 C 10.597656 19.261719 11.058594 19.113281 11.339844 18.816406 C 11.617188 18.515625 11.757812 18.140625 11.757812 17.691406 C 11.757812 17.269531 11.617188 16.894531 11.339844 16.566406 C 11.070312 16.242188 10.609375 16.082031 9.96875 16.082031 Z M 18.734375 23.617188 C 18.367188 23.871094 17.9375 24 17.449219 24 C 16.964844 24 16.535156 23.871094 16.164062 23.617188 C 15.800781 23.355469 15.515625 23.007812 15.3125 22.578125 C 15.109375 22.144531 14.957031 21.675781 14.859375 21.175781 C 14.761719 20.671875 14.710938 20.140625 14.710938 19.582031 C 14.710938 19.019531 14.761719 18.488281 14.859375 17.988281 C 14.957031 17.488281 15.109375 17.019531 15.3125 16.585938 C 15.515625 16.148438 15.800781 15.804688 16.164062 15.550781 C 16.535156 15.292969 16.964844 15.164062 17.449219 15.164062 C 17.9375 15.164062 18.367188 15.292969 18.734375 15.550781 C 19.101562 15.804688 19.386719 16.148438 19.589844 16.585938 C 19.789062 17.019531 19.941406 17.488281 20.039062 17.988281 C 20.136719 18.488281 20.1875 19.019531 20.1875 19.582031 C 20.1875 20.140625 20.136719 20.671875 20.039062 21.175781 C 19.941406 21.675781 19.789062 22.144531 19.589844 22.578125 C 19.386719 23.007812 19.101562 23.355469 18.734375 23.617188 Z M 17.449219 23.222656 C 17.773438 23.222656 18.0625 23.117188 18.308594 22.902344 C 18.566406 22.6875 18.761719 22.398438 18.902344 22.03125 C 19.035156 21.664062 19.136719 21.277344 19.207031 20.871094 C 19.269531 20.460938 19.300781 20.03125 19.300781 19.582031 C 19.300781 19.09375 19.269531 18.640625 19.207031 18.222656 C 19.136719 17.804688 19.035156 17.417969 18.902344 17.066406 C 18.761719 16.714844 18.566406 16.441406 18.320312 16.238281 C 18.070312 16.035156 17.78125 15.933594 17.449219 15.933594 C 17.125 15.933594 16.839844 16.039062 16.589844 16.253906 C 16.335938 16.46875 16.136719 16.761719 16 17.125 C 15.867188 17.492188 15.765625 17.882812 15.695312 18.292969 C 15.632812 18.707031 15.597656 19.136719 15.597656 19.582031 C 15.597656 20.070312 15.632812 20.523438 15.695312 20.941406 C 15.765625 21.359375 15.867188 21.742188 16 22.09375 C 16.136719 22.441406 16.332031 22.714844 16.582031 22.917969 C 16.832031 23.121094 17.121094 23.222656 17.449219 23.222656 Z M 24.742188 24 C 23.589844 24 22.820312 23.515625 22.4375 22.546875 L 23.105469 22.179688 C 23.285156 22.5625 23.484375 22.832031 23.699219 22.988281 C 23.914062 23.144531 24.261719 23.222656 24.75 23.222656 C 25.230469 23.222656 25.636719 23.074219 25.964844 22.773438 C 26.296875 22.464844 26.460938 21.96875 26.460938 21.289062 L 26.460938 15.3125 L 27.3125 15.3125 L 27.3125 21.140625 C 27.3125 21.695312 27.234375 22.167969 27.078125 22.5625 C 26.921875 22.957031 26.710938 23.253906 26.445312 23.449219 C 26.171875 23.644531 25.898438 23.78125 25.617188 23.871094 C 25.339844 23.957031 25.046875 24 24.742188 24 Z M 34.996094 23.851562 L 29.980469 23.851562 L 29.980469 15.3125 L 34.726562 15.3125 L 34.726562 16.132812 L 30.832031 16.132812 L 30.832031 19.035156 L 33.542969 19.035156 L 33.542969 19.835938 L 30.832031 19.835938 L 30.832031 23.03125 L 34.996094 23.03125 Z M 40.3125 24 C 39.773438 24 39.300781 23.875 38.886719 23.625 C 38.472656 23.375 38.144531 23.039062 37.90625 22.613281 C 37.667969 22.195312 37.492188 21.730469 37.375 21.210938 C 37.253906 20.699219 37.195312 20.15625 37.195312 19.582031 C 37.195312 18.769531 37.300781 18.039062 37.515625 17.394531 C 37.722656 16.746094 38.070312 16.210938 38.550781 15.792969 C 39.035156 15.375 39.625 15.164062 40.3125 15.164062 C 40.886719 15.164062 41.339844 15.289062 41.667969 15.539062 C 42.003906 15.785156 42.277344 16.117188 42.484375 16.542969 L 41.730469 16.988281 C 41.554688 16.660156 41.363281 16.402344 41.148438 16.210938 C 40.929688 16.023438 40.648438 15.933594 40.3125 15.933594 C 39.792969 15.933594 39.359375 16.125 39.011719 16.515625 C 38.664062 16.898438 38.421875 17.355469 38.289062 17.882812 C 38.148438 18.40625 38.082031 18.972656 38.082031 19.582031 C 38.082031 20.605469 38.269531 21.46875 38.644531 22.171875 C 39.015625 22.875 39.570312 23.222656 40.3125 23.222656 C 41.003906 23.222656 41.515625 22.863281 41.851562 22.144531 L 42.609375 22.433594 C 42.421875 22.878906 42.140625 23.253906 41.757812 23.554688 C 41.367188 23.851562 40.886719 24 40.3125 24 Z M 47.855469 23.851562 L 47.003906 23.851562 L 47.003906 16.132812 L 44.570312 16.132812 L 44.570312 15.3125 L 50.289062 15.3125 L 50.289062 16.132812 L 47.855469 16.132812 Z M 60.769531 23.851562 L 59.960938 23.851562 L 59.960938 15.3125 L 60.945312 15.3125 L 62.246094 20.644531 C 62.328125 20.972656 62.382812 21.269531 62.414062 21.542969 C 62.429688 21.339844 62.488281 21.039062 62.585938 20.644531 L 63.890625 15.3125 L 64.871094 15.3125 L 64.871094 23.851562 L 64.054688 23.851562 L 64.054688 18.128906 C 64.054688 17.796875 64.0625 17.53125 64.082031 17.328125 C 64.035156 17.632812 63.984375 17.902344 63.925781 18.128906 L 62.515625 23.851562 L 62.316406 23.851562 L 60.910156 18.128906 C 60.851562 17.902344 60.800781 17.632812 60.753906 17.328125 C 60.765625 17.734375 60.769531 18 60.769531 18.128906 Z M 73.058594 23.851562 L 72.199219 23.851562 L 71.492188 21.640625 L 68.339844 21.640625 L 67.644531 23.851562 L 66.757812 23.851562 L 69.574219 15.3125 L 70.226562 15.3125 Z M 69.667969 17.472656 L 68.582031 20.890625 L 71.234375 20.890625 L 70.136719 17.472656 C 69.992188 17.039062 69.914062 16.78125 69.894531 16.699219 C 69.855469 16.863281 69.777344 17.121094 69.667969 17.472656 Z M 75.796875 23.851562 L 74.945312 23.851562 L 74.945312 15.3125 L 75.8125 15.3125 L 78.855469 21.65625 C 78.953125 21.878906 79.007812 22.007812 79.019531 22.046875 C 79.011719 21.890625 79.011719 21.753906 79.011719 21.640625 L 79.011719 15.3125 L 79.863281 15.3125 L 79.863281 23.851562 L 79.003906 23.851562 L 75.96875 17.632812 C 75.910156 17.515625 75.851562 17.375 75.785156 17.214844 C 75.792969 17.347656 75.796875 17.480469 75.796875 17.613281 Z M 88.046875 23.851562 L 87.1875 23.851562 L 86.484375 21.640625 L 83.328125 21.640625 L 82.632812 23.851562 L 81.75 23.851562 L 84.554688 15.3125 L 85.214844 15.3125 Z M 84.660156 17.472656 L 83.574219 20.890625 L 86.222656 20.890625 L 85.128906 17.472656 C 84.984375 17.039062 84.902344 16.78125 84.886719 16.699219 C 84.84375 16.863281 84.769531 17.121094 84.660156 17.472656 Z M 92.609375 24 C 91.945312 24 91.386719 23.78125 90.933594 23.347656 C 90.480469 22.910156 90.160156 22.371094 89.96875 21.726562 C 89.785156 21.085938 89.691406 20.371094 89.691406 19.582031 C 89.691406 18.324219 89.941406 17.269531 90.4375 16.429688 C 90.929688 15.585938 91.65625 15.164062 92.609375 15.164062 C 93.203125 15.164062 93.667969 15.289062 94.011719 15.539062 C 94.351562 15.785156 94.632812 16.117188 94.851562 16.542969 L 94.097656 16.988281 C 93.917969 16.660156 93.714844 16.402344 93.488281 16.210938 C 93.261719 16.023438 92.96875 15.933594 92.609375 15.933594 C 92.140625 15.933594 91.746094 16.125 91.429688 16.515625 C 91.105469 16.898438 90.882812 17.355469 90.757812 17.882812 C 90.636719 18.40625 90.578125 18.972656 90.578125 19.582031 C 90.578125 20.238281 90.644531 20.835938 90.777344 21.367188 C 90.917969 21.902344 91.140625 22.347656 91.453125 22.703125 C 91.773438 23.050781 92.160156 23.222656 92.609375 23.222656 C 93.121094 23.222656 93.523438 23.035156 93.820312 22.660156 C 94.121094 22.273438 94.269531 21.757812 94.269531 21.109375 L 94.269531 20.59375 L 92.699219 20.59375 L 92.699219 19.835938 L 95.164062 19.835938 L 95.164062 20.777344 C 95.164062 21.792969 94.929688 22.582031 94.453125 23.144531 C 93.972656 23.714844 93.359375 24 92.609375 24 Z M 102.4375 23.851562 L 97.433594 23.851562 L 97.433594 15.3125 L 102.179688 15.3125 L 102.179688 16.132812 L 98.285156 16.132812 L 98.285156 19.035156 L 100.996094 19.035156 L 100.996094 19.835938 L 98.285156 19.835938 L 98.285156 23.03125 L 102.4375 23.03125 Z M 110 17.65625 C 110 18.007812 109.945312 18.332031 109.835938 18.632812 C 109.722656 18.929688 109.515625 19.207031 109.207031 19.460938 C 108.90625 19.722656 108.523438 19.894531 108.054688 19.976562 L 109.949219 23.851562 L 109.007812 23.851562 L 107.183594 20.035156 L 105.777344 20.035156 L 105.777344 23.851562 L 104.925781 23.851562 L 104.925781 15.3125 L 107.367188 15.3125 C 108.300781 15.3125 108.972656 15.539062 109.382812 15.984375 C 109.792969 16.433594 110 16.988281 110 17.65625 Z M 107.390625 16.082031 L 105.777344 16.082031 L 105.777344 19.261719 L 107.390625 19.261719 C 108.023438 19.261719 108.480469 19.113281 108.765625 18.816406 C 109.042969 18.515625 109.183594 18.140625 109.183594 17.691406 C 109.183594 17.269531 109.042969 16.894531 108.765625 16.566406 C 108.492188 16.242188 108.035156 16.082031 107.390625 16.082031 Z M 107.390625 16.082031 "/>
<path style=" stroke:none;fill-rule:nonzero;fill:rgb(0%,0%,0%);fill-opacity:1;" d="M 55.074219 9.253906 L 60.363281 0.09375 L 49.785156 0.09375 Z M 49.074219 4.183594 L 43.785156 13.34375 L 54.363281 13.34375 Z M 61.074219 4.183594 L 55.785156 13.34375 L 66.363281 13.34375 Z M 61.074219 4.183594 "/>
</g>
</svg>
